<?xml version="1.0"?>
<svg xmlns="http://www.w3.org/2000/svg" xmlns:xlink="http://www.w3.org/1999/xlink" xmlns:svgjs="http://svgjs.com/svgjs" version="1.1" width="512" height="512" x="0" y="0" viewBox="0 0 512 512" style="enable-background:new 0 0 512 512" xml:space="preserve" class=""><g><path xmlns="http://www.w3.org/2000/svg" d="m328.191 98.601c19.923 37.023 31.893 85.225 34.335 137.399l.618 6.248 41.971 33.752h65.95c-1.452 15.742-4.606 30.997-9.265 45.585l33.151 26.659c11.198-29.035 17.049-60.19 17.049-92.244 0-68.38-26.629-132.667-74.98-181.02-48.353-48.351-112.64-74.98-181.02-74.98s-132.667 26.629-181.02 74.98c-48.351 48.353-74.98 112.64-74.98 181.02s26.629 132.667 74.98 181.02c48.353 48.351 112.64 74.98 181.02 74.98h20v-467.808c19.012 7.914 37.327 26.787 52.191 54.409zm142.883 137.399h-68.51c-2.534-58.807-16.206-113.719-39.149-156.354-3.057-5.681-6.25-11.063-9.555-16.173 64.425 32.878 110.262 97.152 117.214 172.527zm-287.265 177.399c-19.923-37.023-31.893-85.225-34.335-137.399h86.526v191.808c-19.012-7.914-37.327-26.787-52.191-54.409zm-34.335-177.399c2.442-52.174 14.412-100.376 34.335-137.399 14.864-27.622 33.179-46.495 52.191-54.409v191.808zm8.667-172.527c-3.305 5.11-6.498 10.492-9.555 16.173-22.943 42.635-36.615 97.547-39.149 156.354h-68.51c6.951-75.375 52.788-139.649 117.214-172.527zm-117.215 212.527h68.51c2.534 58.807 16.206 113.719 39.149 156.354 3.057 5.681 6.25 11.063 9.555 16.173-64.425-32.878-110.262-97.152-117.214-172.527zm275.074-21.042v240.031l64.24-55.704 34.528 72.278 36.093-17.242-34.165-71.518 94.964-9.622zm40 83.789 54.947 44.433-30.642 3.104-24.305 21.076z" fill="#a9a9a9" data-original="#000000" style="" class=""/></g></svg>
